<svg width="30" height="30" viewBox="0 0 30 30" fill="none" xmlns="http://www.w3.org/2000/svg">
<path fill-rule="evenodd" clip-rule="evenodd" d="M15 30C23.2843 30 30 23.2843 30 15C30 6.71573 23.2843 0 15 0C6.71573 0 0 6.71573 0 15C0 23.2843 6.71573 30 15 30Z" fill="#1EA59A"/>
<path d="M14.72 19H13.07L12.16 16.63C12.0867 16.4433 11.9733 16.3133 11.82 16.24C11.6733 16.1667 11.4867 16.13 11.26 16.13H10.25V19H8.71V11.88H11.88C12.7067 11.88 13.3333 12.06 13.76 12.42C14.1867 12.78 14.4 13.2967 14.4 13.97C14.4 14.4433 14.2733 14.85 14.02 15.19C13.7733 15.53 13.4167 15.7733 12.95 15.92C13.37 16.0067 13.6733 16.2967 13.86 16.79L14.72 19ZM11.65 14.94C12.0967 14.94 12.4233 14.8667 12.63 14.72C12.8367 14.5667 12.94 14.33 12.94 14.01C12.94 13.69 12.8367 13.4567 12.63 13.31C12.4233 13.1567 12.0967 13.08 11.65 13.08H10.23V14.94H11.65ZM20.9501 19L17.8501 15.71V19H16.2901V11.88H17.8501V15.01L20.8401 11.88H22.7001L19.3901 15.28L22.8301 19H20.9501Z" fill="white"/>
</svg>
